<?xml version="1.0" encoding="utf-8"?>
<!-- Generator: Adobe Illustrator 19.2.1, SVG Export Plug-In . SVG Version: 6.00 Build 0)  -->
<svg version="1.1" id="Layer_1" xmlns="http://www.w3.org/2000/svg" xmlns:xlink="http://www.w3.org/1999/xlink" x="0px" y="0px"
	 viewBox="0 0 155.3 38.2" style="enable-background:new 0 0 155.3 38.2;" xml:space="preserve">
<style type="text/css">
	.st0{fill:#FFFFFF;}
</style>
<g>
	<polygon class="st0" points="57.3,23.6 57.3,23.6 57.3,23.6 	"/>
	<path class="st0" d="M57.1,14.2L57.1,14.2L57.1,14.2z"/>
	<path class="st0" d="M56.8,19.1L56.8,19.1c-0.2-0.3-0.5-0.5-0.8-0.6c0.2-0.1,0.4-0.2,0.6-0.4c0.6-0.6,0.8-1.4,0.8-2.3l0,0l0,0
		c0-0.6-0.1-1.1-0.3-1.6c-0.3-0.7-0.9-1.3-1.7-1.6c-0.9-0.3-2-0.5-3.5-0.5H40.1v13.6h0.5h11.7c1.7,0,3-0.2,3.9-0.9l0,0
		c0.5-0.3,0.8-0.8,1-1.3s0.3-1.1,0.3-1.8C57.6,20.7,57.4,19.8,56.8,19.1z M55.2,22.7c-0.1,0.2-0.2,0.3-0.3,0.4
		c-0.2,0.2-0.5,0.3-1,0.4l0,0c-0.5,0.1-1.1,0.1-2,0.1h-9.7v-4.1H52l0,0c1.5,0,2.4,0.2,2.8,0.5l0,0l0,0c0.2,0.1,0.3,0.3,0.4,0.5
		c0.1,0.2,0.1,0.6,0.1,1C55.3,22.1,55.3,22.4,55.2,22.7z M55,15c0.1,0.2,0.1,0.4,0.1,0.8l0,0l0,0l0,0c0,0.4-0.1,0.7-0.2,0.9
		c-0.1,0.1-0.2,0.3-0.3,0.4s-0.3,0.2-0.6,0.2c-0.5,0.1-1.3,0.2-2.3,0.2h-9.6v-3.2h9.6h0.1c0.7,0,1.3,0,1.8,0.1s0.8,0.2,1,0.3l0,0
		C54.9,14.8,55,14.9,55,15z"/>
	<path class="st0" d="M55.4,12.6L55.4,12.6L55.4,12.6z"/>
	<polygon class="st0" points="65.1,23.6 65.1,19.6 76.4,19.6 76.4,17.5 65.1,17.5 65.1,14.3 78.3,14.3 78.3,12.1 62.9,12.1 
		62.9,25.8 78.3,25.8 78.3,23.6 77.8,23.6 	"/>
	<path class="st0" d="M83.2,15.1L83.2,15.1L83.2,15.1z"/>
	<path class="st0" d="M89.7,12.1c-1.4,0-2.6,0.2-3.6,0.5c-1.4,0.5-2.4,1.4-2.9,2.5s-0.7,2.4-0.7,3.8c0,1.9,0.3,3.7,1.3,4.9
		c0.5,0.6,1.3,1.1,2.2,1.4c1,0.3,2.1,0.5,3.5,0.5h10v-2.1h-9.8c-1.1,0-2-0.1-2.7-0.3c-1-0.3-1.6-0.7-1.9-1.4l0,0
		c-0.4-0.7-0.5-1.7-0.5-3l0,0l0,0c0-0.9,0.1-1.6,0.2-2.2c0.2-0.9,0.6-1.5,1.3-1.9c0.7-0.4,1.9-0.7,3.6-0.7l0,0h9.8V12H99
		C94.7,12.1,94.1,12.1,89.7,12.1z"/>
	<polygon class="st0" points="123.9,12.1 123.2,12.1 120,12.1 107.9,19.2 107.9,12.1 105.7,12.1 105.7,25.8 106.2,25.8 107.9,25.8 
		107.9,21.5 112.1,19.1 120.8,25.8 124.2,25.8 114.1,17.9 	"/>
	<path class="st0" d="M150,19.9L150,19.9L150,19.9z"/>
	<path class="st0" d="M150,19.9L150,19.9L150,19.9z"/>
	<path class="st0" d="M148.3,18.1L148.3,18.1L148.3,18.1z"/>
	<path class="st0" d="M150.2,21.7c0-0.6-0.1-1.2-0.2-1.7c-0.3-0.8-0.8-1.4-1.7-1.8c-0.8-0.4-1.9-0.5-3.4-0.6h-6.8l0,0
		c-0.7,0-1.2,0-1.6-0.1c-0.3-0.1-0.5-0.1-0.7-0.2l0,0l0,0c-0.2-0.1-0.3-0.2-0.4-0.5c-0.1-0.2-0.1-0.5-0.1-0.9c0-0.3,0-0.6,0.1-0.8
		c0.1-0.1,0.1-0.2,0.2-0.3c0.1-0.1,0.2-0.2,0.4-0.2c0.4-0.2,1.1-0.2,2.1-0.2l0,0h11.5v-2.1h-11.7c-1.6,0-2.8,0.3-3.6,1
		c-0.4,0.3-0.7,0.7-0.9,1.2l0,0c-0.2,0.5-0.3,1-0.3,1.5c0,0.6,0.1,1.2,0.2,1.7l0,0c0.3,0.7,0.8,1.3,1.6,1.7c0.8,0.3,1.7,0.5,2.9,0.5
		h6.7l0,0c1.5,0,2.4,0.2,2.8,0.4c0.2,0.1,0.3,0.3,0.4,0.5l0,0c0.1,0.2,0.2,0.6,0.2,1.1l0,0l0,0c0,0.5-0.1,0.8-0.1,1
		c-0.1,0.2-0.2,0.3-0.3,0.4c-0.2,0.2-0.5,0.3-1,0.4l0,0l0,0c-0.5,0.1-1.2,0.1-2,0.1h-11.1v2.1h11.3c1.8,0,3.1-0.2,4-0.9l0,0
		c0.5-0.3,0.8-0.8,1-1.3C150.1,23,150.2,22.4,150.2,21.7L150.2,21.7z"/>
	<path class="st0" d="M149.9,23.6L149.9,23.6L149.9,23.6z"/>
	<path class="st0" d="M134.2,13.1L134.2,13.1L134.2,13.1z"/>
	<path class="st0" d="M134.9,19.2L134.9,19.2L134.9,19.2z"/>
	<polygon class="st0" points="126.2,15.3 126.5,15.3 126.9,15.3 128.4,15.3 129.4,12.1 127.2,12.1 	"/>
</g>
<g>
	<g>
		<path class="st0" d="M29.8,32.3c0.5,0,1,0.4,1,1s-0.4,1-1,1c-0.5,0-1-0.4-1-1C28.9,32.7,29.3,32.3,29.8,32.3L29.8,32.3z
			 M29.8,32.5c-0.4,0-0.8,0.4-0.8,0.8c0,0.5,0.4,0.8,0.8,0.8s0.8-0.4,0.8-0.8C30.6,32.8,30.3,32.5,29.8,32.5L29.8,32.5z M29.6,33.8
			h-0.2v-1.1c0.1,0,0.2,0,0.3,0c0.2,0,0.3,0,0.3,0.1c0.1,0,0.1,0.1,0.1,0.2c0,0.1-0.1,0.2-0.2,0.3l0,0c0.1,0,0.2,0.1,0.2,0.3
			s0.1,0.2,0.1,0.3H30c0,0-0.1-0.1-0.1-0.3c0-0.1-0.1-0.2-0.2-0.2h-0.1C29.6,33.4,29.6,33.8,29.6,33.8z M29.6,33.2h0.1
			c0.1,0,0.3-0.1,0.3-0.2c0-0.1-0.1-0.2-0.3-0.2c-0.1,0-0.1,0-0.1,0V33.2z"/>
	</g>
	<g>
		<path class="st0" d="M4.6,7.9v1.2h8.2c0.1-0.4,0.1-0.8,0.2-1.2C13,7.9,4.6,7.9,4.6,7.9z"/>
		<path class="st0" d="M30.5,9.1c-0.1-0.4-0.3-0.8-0.5-1.2H14.2c0.1,0.4,0.2,0.8,0.4,1.2H30.5z"/>
		<path class="st0" d="M30.9,10.9c0-0.4-0.1-0.9-0.2-1.3h-16c0.2,0.5,0.3,0.9,0.5,1.3H30.9z"/>
		<path class="st0" d="M4.6,9.6v1.3h8c0-0.4,0.1-0.9,0.1-1.3H4.6z"/>
		<path class="st0" d="M4.6,13.9v1.5h8.1c-0.1-0.5-0.1-1-0.2-1.5H4.6z"/>
		<path class="st0" d="M29.9,15.5c0.3-0.5,0.5-1,0.7-1.5H16.7c0.3,0.5,0.6,1,0.9,1.5H29.9z"/>
		<path class="st0" d="M30.8,13.1c0.1-0.5,0.1-1,0.1-1.5H15.5c0.2,0.5,0.5,1,0.7,1.5H30.8z"/>
		<path class="st0" d="M4.6,11.6v1.5h7.9c0-0.5,0-1,0.1-1.5H4.6z"/>
		<path class="st0" d="M24.4,19c1.7-0.3,3-1,4.1-1.9h-10c1.5,3.4,2,7.5-1.6,16.7c0,0.1,0.1,0.2,0.2,0.4h7.3
			C32.6,34.1,33.4,19.9,24.4,19z"/>
		<path class="st0" d="M15.4,33.8c2.7-1.6,2-11.8-1.2-14.8c-0.5-0.5-0.9-1.1-1.1-1.8H4.6v17.1H15C15.1,33.9,15.4,33.8,15.4,33.8z"/>
		<path class="st0" d="M4.6,6.4v1.1h8.5c0.1-0.4,0.2-0.8,0.2-1.1H4.6z"/>
		<path class="st0" d="M29.8,7.5c-0.2-0.4-0.5-0.8-0.8-1.1H13.8c0.1,0.4,0.1,0.8,0.2,1.1H29.8z"/>
		<path class="st0" d="M13.8,6h15c-0.4-0.4-0.8-0.7-1.2-1h-23v1h8.8c0.1-0.6,0.3-1,0.3-1C13.7,5.4,13.7,5.7,13.8,6z"/>
		<path class="st0" d="M23.8,3.9H4.6v0.9h22.6C26.2,4.3,25.1,3.9,23.8,3.9z"/>
	</g>
</g>
</svg>
