<?xml version="1.0" encoding="utf-8"?>
<!-- Generator: Adobe Illustrator 20.1.0, SVG Export Plug-In . SVG Version: 6.00 Build 0)  -->
<svg version="1.1" id="Layer_1" xmlns="http://www.w3.org/2000/svg" xmlns:xlink="http://www.w3.org/1999/xlink" x="0px" y="0px"
	 viewBox="0 0 155.3 38.2" style="enable-background:new 0 0 155.3 38.2;" xml:space="preserve">
<style type="text/css">
	.st0{font-family:'HouseMovements-Runway';}
	.st1{font-size:18.9969px;}
</style>
<g>
	<g>
		<path d="M29.8,32.3c0.5,0,1,0.4,1,1s-0.4,1-1,1c-0.5,0-1-0.4-1-1C28.9,32.7,29.3,32.3,29.8,32.3L29.8,32.3z M29.8,32.5
			c-0.4,0-0.8,0.4-0.8,0.8c0,0.5,0.4,0.8,0.8,0.8s0.8-0.4,0.8-0.8C30.6,32.8,30.3,32.5,29.8,32.5L29.8,32.5z M29.6,33.8h-0.2v-1.1
			c0.1,0,0.2,0,0.3,0c0.2,0,0.3,0,0.3,0.1c0.1,0,0.1,0.1,0.1,0.2c0,0.1-0.1,0.2-0.2,0.3l0,0c0.1,0,0.2,0.1,0.2,0.3s0.1,0.2,0.1,0.3
			H30c0,0-0.1-0.1-0.1-0.3c0-0.1-0.1-0.2-0.2-0.2h-0.1C29.6,33.4,29.6,33.8,29.6,33.8z M29.6,33.2h0.1c0.1,0,0.3-0.1,0.3-0.2
			c0-0.1-0.1-0.2-0.3-0.2c-0.1,0-0.1,0-0.1,0V33.2z"/>
	</g>
	<g id="B">
		<path d="M4.6,7.9v1.2h8.2c0.1-0.4,0.1-0.8,0.2-1.2C13,7.9,4.6,7.9,4.6,7.9z"/>
		<path d="M30.5,9.1c-0.1-0.4-0.3-0.8-0.5-1.2H14.2c0.1,0.4,0.2,0.8,0.4,1.2H30.5z"/>
		<path d="M30.9,10.9c0-0.4-0.1-0.9-0.2-1.3h-16c0.2,0.5,0.3,0.9,0.5,1.3H30.9z"/>
		<path d="M4.6,9.6v1.3h8c0-0.4,0.1-0.9,0.1-1.3H4.6z"/>
		<path d="M4.6,13.9v1.5h8.1c-0.1-0.5-0.1-1-0.2-1.5H4.6z"/>
		<path d="M29.9,15.5c0.3-0.5,0.5-1,0.7-1.5H16.7c0.3,0.5,0.6,1,0.9,1.5H29.9z"/>
		<path d="M30.8,13.1c0.1-0.5,0.1-1,0.1-1.5H15.5c0.2,0.5,0.5,1,0.7,1.5H30.8z"/>
		<path d="M4.6,11.6v1.5h7.9c0-0.5,0-1,0.1-1.5H4.6z"/>
		<path d="M24.4,19c1.7-0.3,3-1,4.1-1.9h-10c1.5,3.4,2,7.5-1.6,16.7c0,0.1,0.1,0.2,0.2,0.4h7.3C32.6,34.1,33.4,19.9,24.4,19z"/>
		<path d="M15.4,33.8c2.7-1.6,2-11.8-1.2-14.8c-0.5-0.5-0.9-1.1-1.1-1.8H4.6v17.1H15C15.1,33.9,15.4,33.8,15.4,33.8z"/>
		<path d="M4.6,6.4v1.1h8.5c0.1-0.4,0.2-0.8,0.2-1.1H4.6z"/>
		<path d="M29.8,7.5c-0.2-0.4-0.5-0.8-0.8-1.1H13.8c0.1,0.4,0.1,0.8,0.2,1.1H29.8z"/>
		<path d="M13.8,6h15c-0.4-0.4-0.8-0.7-1.2-1h-23v1h8.8c0.1-0.6,0.3-1,0.3-1C13.7,5.4,13.7,5.7,13.8,6z"/>
		<path d="M23.8,3.9H4.6v0.9h22.6C26.2,4.3,25.1,3.9,23.8,3.9z"/>
	</g>
</g>
<text transform="matrix(0.8951 0 0 1 39.8587 25.75)" class="st0 st1">BOSS</text>
<rect x="35.4" y="2.3" width="0.2" height="30.6"/>
</svg>
